<svg width="41" height="40" viewBox="0 0 41 40" fill="none" xmlns="http://www.w3.org/2000/svg">
<g id="account_circle" clip-path="url(#clip0_128_285)">
<path id="Vector" d="M20.3636 3.33334C10.9963 3.33334 3.39392 10.8 3.39392 20C3.39392 29.2 10.9963 36.6667 20.3636 36.6667C29.7309 36.6667 37.3333 29.2 37.3333 20C37.3333 10.8 29.7309 3.33334 20.3636 3.33334ZM11.9976 30.4667C12.7273 28.9667 17.1733 27.5 20.3636 27.5C23.5539 27.5 28.017 28.9667 28.7297 30.4667C26.4218 32.2667 23.52 33.3333 20.3636 33.3333C17.2073 33.3333 14.3054 32.2667 11.9976 30.4667ZM31.1563 28.05C28.7297 25.15 22.8412 24.1667 20.3636 24.1667C17.886 24.1667 11.9976 25.15 9.57089 28.05C7.83998 25.8167 6.78786 23.0333 6.78786 20C6.78786 12.65 12.88 6.66668 20.3636 6.66668C27.8473 6.66668 33.9394 12.65 33.9394 20C33.9394 23.0333 32.8873 25.8167 31.1563 28.05ZM20.3636 10C17.0715 10 14.4242 12.6 14.4242 15.8333C14.4242 19.0667 17.0715 21.6667 20.3636 21.6667C23.6557 21.6667 26.303 19.0667 26.303 15.8333C26.303 12.6 23.6557 10 20.3636 10ZM20.3636 18.3333C18.9551 18.3333 17.8182 17.2167 17.8182 15.8333C17.8182 14.45 18.9551 13.3333 20.3636 13.3333C21.7721 13.3333 22.9091 14.45 22.9091 15.8333C22.9091 17.2167 21.7721 18.3333 20.3636 18.3333Z" fill="#323232"/>
</g>
<defs>
<clipPath id="clip0_128_285">
<rect width="40.7273" height="40" fill="white"/>
</clipPath>
</defs>
</svg>
